<svg width="18" height="18" viewBox="0 0 18 18" xmlns="http://www.w3.org/2000/svg">
<path d="M17.64 9.20455C17.64 8.56818 17.5827 7.95455 17.4764 7.36364H9V10.8409H13.8436C13.635 11.9909 12.9991 12.9455 12.0455 13.5955V15.8182H14.9536C16.6764 14.25 17.64 11.9318 17.64 9.20455Z" fill="#4285F4"/>
<path d="M9 18C11.43 18 13.4673 17.1955 14.9536 15.8182L12.0455 13.5955C11.2591 14.1091 10.2264 14.4318 9 14.4318C6.72682 14.4318 4.80909 12.9136 4.01182 10.9091H1V13.1591C2.47636 15.9955 5.48182 18 9 18Z" fill="#34A853"/>
<path d="M4.01182 10.9091C3.81364 10.3227 3.70909 9.68182 3.70909 9C3.70909 8.31818 3.81364 7.67727 4.01182 7.09091V4.84091H1C0.363636 6.06818 0 7.47727 0 9C0 10.5227 0.363636 11.9318 1 13.1591L4.01182 10.9091Z" fill="#FBBC05"/>
<path d="M9 3.56818C10.3214 3.56818 11.5077 4.03636 12.4736 4.96364L15.0182 2.42273C13.4673 0.931818 11.43 0 9 0C5.48182 0 2.47636 2.00455 1 4.84091L4.01182 7.09091C4.80909 5.08636 6.72682 3.56818 9 3.56818Z" fill="#EA4335"/>
</svg> 